<svg id="_733585" data-name="733585" xmlns="http://www.w3.org/2000/svg" width="25" height="25" viewBox="0 0 25 25">
  <path id="Path_2987" data-name="Path 2987" d="M12.5,0H12.5A12.492,12.492,0,0,0,2.38,19.827L.822,24.47l4.8-1.536A12.5,12.5,0,1,0,12.5,0Z" fill="#4caf50"/>
  <path id="Path_2988" data-name="Path 2988" d="M121.922,129.138a3.556,3.556,0,0,1-2.473,1.781c-.658.14-1.519.252-4.414-.95-3.7-1.537-6.088-5.305-6.274-5.55a7.214,7.214,0,0,1-1.5-3.807,4.032,4.032,0,0,1,1.289-3.072,1.829,1.829,0,0,1,1.289-.453c.156,0,.3.008.422.014.37.016.556.038.8.623.3.734,1.044,2.545,1.133,2.731a.752.752,0,0,1,.054.683,2.181,2.181,0,0,1-.408.579c-.186.215-.362.379-.548.609-.17.2-.362.415-.148.786a11.2,11.2,0,0,0,2.045,2.545,9.262,9.262,0,0,0,2.955,1.825.8.8,0,0,0,.888-.14,15.268,15.268,0,0,0,.985-1.306.7.7,0,0,1,.9-.275c.34.118,2.141,1.01,2.511,1.194s.614.274.7.431A3.147,3.147,0,0,1,121.922,129.138Z" transform="translate(-102.089 -111.439)" fill="#fafafa"/>
</svg>
