<svg xmlns="http://www.w3.org/2000/svg" width="20.312" height="25" viewBox="0 0 20.312 25">
  <path id="_733566" data-name="733566" d="M58.5,0C51.648,0,48,4.391,48,9.179c0,2.22,1.241,4.989,3.227,5.867.3.136.466.078.533-.2.059-.213.32-1.236.447-1.719a.442.442,0,0,0-.106-.434,5.693,5.693,0,0,1-1.183-3.455c0-3.339,2.655-6.582,7.172-6.582,3.906,0,6.639,2.538,6.639,6.167,0,4.1-2.17,6.939-4.991,6.939a2.234,2.234,0,0,1-2.355-2.741c.445-1.8,1.319-3.745,1.319-5.047A1.939,1.939,0,0,0,56.7,5.841c-1.589,0-2.878,1.574-2.878,3.686a5.255,5.255,0,0,0,.475,2.249s-1.572,6.35-1.864,7.536a16.863,16.863,0,0,0,.116,5.539.165.165,0,0,0,.3.077,19.687,19.687,0,0,0,2.588-4.874c.194-.714.989-3.61.989-3.61a4.32,4.32,0,0,0,3.644,1.738c4.788,0,8.247-4.208,8.247-9.43C68.3,3.745,64.014,0,58.5,0" transform="translate(-48.004)" fill="#d32f2f"/>
</svg>
