<svg xmlns="http://www.w3.org/2000/svg" width="16" height="12" viewBox="0 0 16 12">
  <g id="Group_10242" data-name="Group 10242" transform="translate(-5426.5 -17660)">
    <path id="Line_621" data-name="Line 621" d="M14,1H0A1,1,0,0,1-1,0,1,1,0,0,1,0-1H14a1,1,0,0,1,1,1A1,1,0,0,1,14,1Z" transform="translate(5427.5 17666)" fill="#fff"/>
    <path id="Line_622" data-name="Line 622" d="M10,1H0A1,1,0,0,1-1,0,1,1,0,0,1,0-1H10a1,1,0,0,1,1,1A1,1,0,0,1,10,1Z" transform="translate(5427.5 17661)" fill="#fff"/>
    <path id="Line_623" data-name="Line 623" d="M6,1H0A1,1,0,0,1-1,0,1,1,0,0,1,0-1H6A1,1,0,0,1,7,0,1,1,0,0,1,6,1Z" transform="translate(5427.5 17671)" fill="#fff"/>
  </g>
</svg>
