<svg xmlns="http://www.w3.org/2000/svg" width="15.997" height="17.349" viewBox="0 0 15.997 17.349">
  <g id="Group_11207" data-name="Group 11207" transform="translate(-53.002 -57.327)">
    <path id="Subtraction_845" data-name="Subtraction 845" d="M12557-14503.325a2.674,2.674,0,0,1-2.672-2.672h-3.779a1.542,1.542,0,0,1-1.3-.73,1.541,1.541,0,0,1-.106-1.485.017.017,0,0,1,0-.009h0v0l1.182-2.372v-3.233a6.924,6.924,0,0,1,1.826-4.693,6.536,6.536,0,0,1,4.522-2.14c.112,0,.219-.008.318-.008a6.668,6.668,0,0,1,1.209.11,4.465,4.465,0,0,0-.817,1.238c-.127-.009-.256-.014-.382-.014-.076,0-.157,0-.263.007a5.417,5.417,0,0,0-5.081,5.5v3.39a.741.741,0,0,1-.068.3l-1.243,2.5a.229.229,0,0,0,0,.224.227.227,0,0,0,.2.093h12.9a.227.227,0,0,0,.2-.093.224.224,0,0,0,0-.221l-1.243-2.5a.727.727,0,0,1-.069-.3v-2.637a4.435,4.435,0,0,0,1.334-.479v2.96l1.182,2.372v.006h0a.017.017,0,0,1,0,.009,1.535,1.535,0,0,1-.1,1.483,1.544,1.544,0,0,1-1.3.732h-3.779A2.674,2.674,0,0,1,12557-14503.325Zm-1.338-2.672a1.324,1.324,0,0,0,1.338,1.338,1.322,1.322,0,0,0,1.334-1.338Z" transform="translate(-12496 14578)" fill="#fff"/>
    <circle id="Ellipse_1414" data-name="Ellipse 1414" cx="2.5" cy="2.5" r="2.5" transform="translate(63 58)" fill="#ff4133"/>
  </g>
</svg>
