<svg xmlns="http://www.w3.org/2000/svg" width="43.573" height="20.012" viewBox="0 0 43.573 20.012">
  <g id="Group_10480" data-name="Group 10480" transform="translate(-191 -181.986)">
    <path id="Union_493" data-name="Union 493" d="M-1034.174-21757.447l-3.525-6.178a7.967,7.967,0,0,1-1.3-4.375,8,8,0,0,1,8-8h27.577a8,8,0,0,1,8,8,8,8,0,0,1-8,8h-27.212l-1.818,2.553a1.054,1.054,0,0,1-.861.445A1.054,1.054,0,0,1-1034.174-21757.447Z" transform="translate(1230 21959)" fill="#2ed173"/>
    <path id="Subtraction_576" data-name="Subtraction 576" d="M5.046,10.093a5.046,5.046,0,1,1,5.046-5.046A5.052,5.052,0,0,1,5.046,10.093ZM2.375,4.352a.694.694,0,0,0,0,1.389H4.352V7.716a.694.694,0,1,0,1.389,0V5.74H7.717a.694.694,0,1,0,0-1.389H5.741V2.376a.694.694,0,1,0-1.389,0V4.352Z" transform="translate(194.237 185.953)" fill="#fff"/>
    <text id="_3000" data-name="3000" transform="translate(218.479 194.986)" fill="#fff" font-size="12" font-family="SegoeUI-Light, Segoe UI" font-weight="300" letter-spacing="-0.03em"><tspan x="-11.823" y="0">3000</tspan></text>
  </g>
</svg>
