<svg xmlns="http://www.w3.org/2000/svg" width="17" height="17" viewBox="0 0 17 17">
  <g id="Group_10659" data-name="Group 10659" transform="translate(-35 -109)">
    <circle id="Ellipse_1034" data-name="Ellipse 1034" cx="8.5" cy="8.5" r="8.5" transform="translate(35 109)" fill="#0856dd"/>
    <path id="Union_308" data-name="Union 308" d="M-5492.671-17698.281a.933.933,0,0,1-.277-.674v-3.1h-3.1a.95.95,0,0,1-.95-.945.948.948,0,0,1,.95-.949h3.1v-3.1a.945.945,0,0,1,.934-.957h.012a.917.917,0,0,1,.67.281.949.949,0,0,1,.28.676v3.1h3.1a.949.949,0,0,1,.95.949.951.951,0,0,1-.95.945h-3.1v3.1a.953.953,0,0,1-.95.953A.961.961,0,0,1-5492.671-17698.281Z" transform="translate(5535.502 17820.504)" fill="#fff"/>
  </g>
</svg>
