<svg xmlns="http://www.w3.org/2000/svg" width="40.622" height="40.622" viewBox="0 0 40.622 40.622">
  <g id="Group_10458" data-name="Group 10458" transform="translate(-167 -482.689)">
    <path id="Path_5484" data-name="Path 5484" d="M14.311,28.622A14.311,14.311,0,1,0,0,14.311,14.313,14.313,0,0,0,14.311,28.622Z" transform="translate(201.622 488.689) rotate(90)" fill="#fff"/>
    <path id="Path_5484_-_Outline" data-name="Path 5484 - Outline" d="M14.311,28.622A14.311,14.311,0,1,0,0,14.311,14.313,14.313,0,0,0,14.311,28.622m0,6A20.311,20.311,0,1,1,34.622,14.311,20.334,20.334,0,0,1,14.311,34.622Z" transform="translate(201.622 488.689) rotate(90)" fill="#f5f6fb"/>
    <path id="Path_5485" data-name="Path 5485" d="M20.385,12.352a.416.416,0,0,1-.156.329c-.006.006-.017.012-.023.023s-.012.006-.012.012-.017.012-.023.017-.006.006-.012.006q-2.907,1.886-5.809,3.767a.427.427,0,0,1-.635-.363v-2.89H8.607c-.017,0-.029-.006-.046-.006a.754.754,0,0,1-.7-.421c-.369-.669-.738-1.338-1.108-2.013-.525-.958.94-1.805,1.465-.848.288.531.583,1.056.871,1.586h4.615V8.562a.429.429,0,0,1,.64-.369q2.9,1.878,5.8,3.761l.04.023h0c.012.012.029.017.04.029A.415.415,0,0,1,20.385,12.352Zm-8.22-5.762c-.288-.531-.583-1.056-.871-1.586H6.68V7.991a.429.429,0,0,1-.64.369Q3.133,6.482.237,4.6A.175.175,0,0,1,.2,4.576h0c-.012-.012-.029-.017-.04-.029A.4.4,0,0,1,0,4.207a.416.416,0,0,1,.156-.329c.006-.006.017-.012.023-.017s.012-.006.012-.012.017-.012.023-.017.006-.006.012-.006Q3.133,1.94,6.034.059a.427.427,0,0,1,.635.363v2.89h5.111c.017,0,.029.006.046.006a.754.754,0,0,1,.7.421c.369.669.738,1.338,1.108,2.013A.844.844,0,0,1,12.166,6.589Z" transform="translate(196.025 492.322) rotate(90)" fill="#2ed173"/>
  </g>
</svg>
