<svg xmlns="http://www.w3.org/2000/svg" width="18" height="14" viewBox="0 0 18 14">
  <g id="Group_10240" data-name="Group 10240" transform="translate(-5426.5 -17660)">
    <path id="Line_621" data-name="Line 621" d="M15.875,1.25H.125A1.125,1.125,0,0,1,.125-1h15.75a1.125,1.125,0,0,1,0,2.25Z" transform="translate(5427.5 17666.875)" fill="#fff"/>
    <path id="Line_622" data-name="Line 622" d="M11.375,1.25H.125A1.125,1.125,0,0,1,.125-1h11.25a1.125,1.125,0,0,1,0,2.25Z" transform="translate(5427.5 17661)" fill="#fff"/>
    <path id="Line_623" data-name="Line 623" d="M6.875,1.25H.125A1.125,1.125,0,0,1,.125-1h6.75a1.125,1.125,0,0,1,0,2.25Z" transform="translate(5427.5 17672.75)" fill="#fff"/>
  </g>
</svg>
