<svg xmlns="http://www.w3.org/2000/svg" width="20.167" height="22" viewBox="0 0 20.167 22">
  <path id="icons8_open_box" d="M14.083,2,9.5,6.583h9.167ZM7.316,3.833a1.823,1.823,0,0,0-1.64,1.013L4,8.2V22.167A1.833,1.833,0,0,0,5.833,24h16.5a1.833,1.833,0,0,0,1.833-1.833V8.2L22.491,4.847a1.821,1.821,0,0,0-1.64-1.013H18.509l1.833,1.833h.508l1.375,2.75H5.941l1.375-2.75h.508L9.658,3.833Zm4.018,6.417h5.5a.917.917,0,0,1,0,1.833h-5.5a.917.917,0,1,1,0-1.833Z" transform="translate(-4 -2)" fill="#0157f0"/>
</svg>
