<svg xmlns="http://www.w3.org/2000/svg" width="16" height="16" viewBox="0 0 16 16">
  <path id="icons8_help" d="M12,4a8,8,0,1,0,8,8A8.009,8.009,0,0,0,12,4Zm0,1.2A6.8,6.8,0,1,1,5.2,12,6.791,6.791,0,0,1,12,5.2Zm0,2.4A2.409,2.409,0,0,0,9.6,10v.2a.6.6,0,1,0,1.2,0V10a1.2,1.2,0,1,1,2.4,0,1.319,1.319,0,0,1-.67,1.389,3.424,3.424,0,0,0-.732.687,2.226,2.226,0,0,0-.4,1.324.6.6,0,1,0,1.2,0,.9.9,0,0,1,.165-.614,2.808,2.808,0,0,1,.505-.453A2.829,2.829,0,0,0,14.4,10,2.409,2.409,0,0,0,12,7.6Zm0,7.6a.8.8,0,1,0,.8.8A.8.8,0,0,0,12,15.2Z" transform="translate(-4 -4)" fill="#1471ea"/>
</svg>
