<svg xmlns="http://www.w3.org/2000/svg" width="13.5" height="15" viewBox="0 0 13.5 15">
  <path id="icons8_trash_can" d="M12.75,4A2.259,2.259,0,0,0,10.5,6.25H8.155a.514.514,0,0,0-.182,0H6.562a.563.563,0,1,0,0,1.125H7.5v9.563A2.071,2.071,0,0,0,9.562,19h6.375A2.071,2.071,0,0,0,18,16.938V7.375h.938a.563.563,0,1,0,0-1.125H17.53a.563.563,0,0,0-.182,0H15A2.259,2.259,0,0,0,12.75,4Zm0,1.125A1.117,1.117,0,0,1,13.875,6.25h-2.25A1.117,1.117,0,0,1,12.75,5.125ZM8.625,7.375h8.25v9.563a.929.929,0,0,1-.937.938H9.562a.929.929,0,0,1-.937-.937Zm2.8,1.867a.563.563,0,0,0-.554.571v5.625a.563.563,0,1,0,1.125,0V9.813a.563.563,0,0,0-.571-.571Zm2.625,0a.563.563,0,0,0-.554.571v5.625a.563.563,0,1,0,1.125,0V9.813a.563.563,0,0,0-.571-.571Z" transform="translate(-6 -4)" fill="#b2b2b2"/>
</svg>
