<svg xmlns="http://www.w3.org/2000/svg" width="20.814" height="22" viewBox="0 0 20.814 22">
  <path id="icons8_customer_support" d="M11.137,0V6.837a3.378,3.378,0,0,1,2.534,3.3,3.3,3.3,0,0,1-1.188,2.534L15.519,15.2H15.7a1.3,1.3,0,0,1,1.267,1.267,1.228,1.228,0,0,1-2.455.079l-3.643-3.036h-.581a3.39,3.39,0,0,1-3.379-3.379,3.454,3.454,0,0,1,2.534-3.3V.079A9.277,9.277,0,0,0,1,9.292a9.642,9.642,0,0,0,1.953,5.755,6.406,6.406,0,0,1,1.425,3.8v.422a.832.832,0,0,0,.686.845l8.447,1.848a.8.8,0,0,0,1-.845V19.851l1.425.079a3.357,3.357,0,0,0,3.643-3.379V13.938l1.769-.924a.757.757,0,0,0,.343-1.109L19.5,8.183A9.341,9.341,0,0,0,11.137,0Zm-.845,8.447a1.689,1.689,0,1,0,1.689,1.689A1.688,1.688,0,0,0,10.292,8.447Z" transform="translate(-1)" fill="#ff4133"/>
</svg>
