<svg xmlns="http://www.w3.org/2000/svg" width="16" height="14.161" viewBox="0 0 16 14.161">
  <path id="icons8_insect" d="M6.493,4.978a.544.544,0,0,0-.536.552V6.619A.544.544,0,0,0,6.116,7l.767.767A3.6,3.6,0,0,0,6.32,9.7v.181a.544.544,0,0,0,.021.159l-.906-.906A.544.544,0,0,0,5.2,9L2.66,8.272a.544.544,0,1,0-.3,1.046l2.4.687,1.022,1.022c-.032.043-.061.088-.091.132H5.686l-2.177.363a.544.544,0,0,0-.378.257L2.044,13.594a.544.544,0,0,0,.934.56l.959-1.6,1.149-.191a4.258,4.258,0,0,0-.216,1.328,4.168,4.168,0,0,0,.7,2.221L4.53,17.4l-2.179.67a.544.544,0,1,0,.32,1.04l2.358-.726a.544.544,0,0,0,.286-.208l.952-1.36c.131.142.267.279.407.408a5.184,5.184,0,0,0,3.274,1.547,5.184,5.184,0,0,0,3.274-1.547c.085-.078.165-.161.247-.244l.947,1.218a.544.544,0,0,0,.28.188l2.539.726a.544.544,0,1,0,.3-1.046l-2.369-.677-.981-1.26a4.026,4.026,0,0,0,.626-3.765l1.149.191.959,1.6a.544.544,0,1,0,.934-.56L16.763,11.78a.544.544,0,0,0-.378-.257l-2.177-.363H14.2c-.031-.044-.059-.089-.091-.132l.993-.993,2.36-.337a.544.544,0,1,0-.154-1.077l-2.539.363a.544.544,0,0,0-.307.154l-.907.907a.544.544,0,0,0,.022-.159V9.7A3.6,3.6,0,0,0,13.146,8L14.141,7a.544.544,0,0,0,.159-.385V5.53a.544.544,0,1,0-1.088,0v.863l-.725.725a3.621,3.621,0,0,0-2.014-1,.544.544,0,0,0-1.051,0A3.612,3.612,0,0,0,7.6,6.946l-.553-.553V5.53a.544.544,0,0,0-.553-.552ZM9.947,7.163a2.53,2.53,0,0,1,2.537,2.478,5.178,5.178,0,0,0-5.073,0,2.529,2.529,0,0,1,.55-1.522.544.544,0,0,0,.1-.112A2.528,2.528,0,0,1,9.947,7.163Zm0,2.9a3.94,3.94,0,0,1,3.99,3.628,4.038,4.038,0,0,1-1.452,2.731,5.352,5.352,0,0,1-1.994,1.17V13.148a.544.544,0,1,0-1.088,0v4.445a5.352,5.352,0,0,1-1.994-1.17,4.038,4.038,0,0,1-1.452-2.731A3.94,3.94,0,0,1,9.947,10.065Z" transform="translate(-1.947 -4.978)" fill="#1471ea"/>
</svg>
