<svg xmlns="http://www.w3.org/2000/svg" width="15.2" height="19" viewBox="0 0 15.2 19">
  <path id="icons8_lock" d="M15.6,4a3.811,3.811,0,0,0-3.8,3.8V9.7H10.137A2.14,2.14,0,0,0,8,11.837v9.025A2.14,2.14,0,0,0,10.137,23H21.063A2.14,2.14,0,0,0,23.2,20.862V11.837A2.14,2.14,0,0,0,21.063,9.7H19.4V7.8A3.811,3.811,0,0,0,15.6,4Zm0,1.425A2.364,2.364,0,0,1,17.975,7.8V9.7h-4.75V7.8A2.364,2.364,0,0,1,15.6,5.425Zm0,9.5a1.425,1.425,0,1,1-1.425,1.425A1.425,1.425,0,0,1,15.6,14.925Z" transform="translate(-8 -4)" fill="#1471ea"/>
</svg>
