<svg xmlns="http://www.w3.org/2000/svg" width="17.538" height="19" viewBox="0 0 17.538 19">
  <path id="icons8_clinic" d="M22.146,9.612,15.222,4.156a.732.732,0,0,0-.9,0L7.393,9.612A3.633,3.633,0,0,0,6,12.482v7.838A2.683,2.683,0,0,0,8.679,23H20.859a2.683,2.683,0,0,0,2.679-2.679V12.482A3.634,3.634,0,0,0,22.146,9.612Zm-10.3,6.08a.731.731,0,0,1,0-1.462h2.192V12.038a.731.731,0,0,1,1.462,0v2.192h2.192a.731.731,0,0,1,0,1.462H15.5v2.192a.731.731,0,1,1-1.462,0V15.692Z" transform="translate(-6 -4)" fill="#1471ea"/>
</svg>
