<svg xmlns="http://www.w3.org/2000/svg" width="12.8" height="16" viewBox="0 0 12.8 16">
  <path id="icons8_password_1" d="M14.4,4a3.209,3.209,0,0,0-3.2,3.2V8.8H9.8A1.809,1.809,0,0,0,8,10.6v7.6A1.809,1.809,0,0,0,9.8,20H19a1.809,1.809,0,0,0,1.8-1.8V10.6A1.809,1.809,0,0,0,19,8.8H17.6V7.2A3.209,3.209,0,0,0,14.4,4Zm0,1.2a1.991,1.991,0,0,1,2,2V8.8h-4V7.2A1.991,1.991,0,0,1,14.4,5.2ZM9.8,10H19a.591.591,0,0,1,.6.6v7.6a.591.591,0,0,1-.6.6H9.8a.591.591,0,0,1-.6-.6V10.6A.591.591,0,0,1,9.8,10Zm1.8,3.6a.8.8,0,1,0,.8.8A.8.8,0,0,0,11.6,13.6Zm2.8,0a.8.8,0,1,0,.8.8A.8.8,0,0,0,14.4,13.6Zm2.8,0a.8.8,0,1,0,.8.8A.8.8,0,0,0,17.2,13.6Z" transform="translate(-8 -4)" fill="#1471ea"/>
</svg>
