<svg xmlns="http://www.w3.org/2000/svg" width="20" height="21.503" viewBox="0 0 20 21.503">
  <path id="icons8_guarantee" d="M14.055,2.994a2.231,2.231,0,0,0-1.5.571l-.5.448-.658-.146a2.23,2.23,0,0,0-2.61,1.484l-.211.641-.644.2a2.232,2.232,0,0,0-1.52,2.591l.138.66-.455.5a2.232,2.232,0,0,0-.02,3l.448.5-.146.658A2.223,2.223,0,0,0,7,16.194L4.22,18.978a.75.75,0,0,0,.306,1.246l2.936.922.807,2.808a.75.75,0,0,0,1.251.323l4.217-4.217a.75.75,0,0,0,.066-.075c.053,0,.1.015.157.015a2.235,2.235,0,0,0,.226-.02l4.3,4.3a.75.75,0,0,0,1.251-.323l.807-2.808,2.936-.922a.75.75,0,0,0,.306-1.246l-2.768-2.768a2.224,2.224,0,0,0,.582-2l-.138-.66.456-.5a2.233,2.233,0,0,0,.018-3l-.448-.5.146-.658a2.231,2.231,0,0,0-1.484-2.61L19.5,6.065l-.2-.644A2.23,2.23,0,0,0,16.711,3.9l-.66.138-.5-.455A2.235,2.235,0,0,0,14.055,2.994Zm3,6.451a.749.749,0,0,1,.53,1.279L13.7,14.61a.751.751,0,0,1-1.062,0l-2.22-2.22a.75.75,0,1,1,1.061-1.061l1.69,1.69,3.355-3.355A.748.748,0,0,1,17.054,9.445ZM8.417,16.9l.079.026.2.644a2.232,2.232,0,0,0,2.591,1.52l.66-.138.4.368-3,3-.566-1.973a.75.75,0,0,0-.5-.508l-2.141-.672Zm11.206.04,2.223,2.223-2.141.672a.75.75,0,0,0-.5.508l-.566,1.973L15.61,19.285l.342-.3.658.146a2.23,2.23,0,0,0,2.61-1.484l.212-.64Z" transform="translate(-4 -2.994)" fill="#fd337e"/>
</svg>
