<svg xmlns="http://www.w3.org/2000/svg" width="22" height="20.425" viewBox="0 0 22 20.425">
  <path id="icons8_handshake_heart" d="M8.675,3.007a6.424,6.424,0,0,0-6.669,5.96,6.3,6.3,0,0,0,1.32,4.183l.006,0,.295.368a2.35,2.35,0,0,0,2.3,2.836h.006a2.347,2.347,0,0,0,2.351,2.357h0a2.352,2.352,0,0,0,2.354,2.357h0a2.355,2.355,0,0,0,4.021,1.667l.786-.786a2.29,2.29,0,0,0,.546-.89c.049,0,.1.009.144.009A2.352,2.352,0,0,0,18.5,18.715h0A2.342,2.342,0,0,0,20.847,16.4a2.387,2.387,0,0,0,1.7-.752h0a2.323,2.323,0,0,0,.227-2.689,6.233,6.233,0,0,0,1.215-3.99,6.419,6.419,0,0,0-6.666-5.96A6.7,6.7,0,0,0,13,4.517,6.7,6.7,0,0,0,8.675,3.007ZM8.629,4.578A5.049,5.049,0,0,1,11.855,5.6L9.768,7.617l-.006,0a2.358,2.358,0,0,0,3.333,3.336l2.228-2.148a1.114,1.114,0,0,1,1.581.025l4.505,4.613,0,0a.786.786,0,0,1-.021,1.129h0v0a.755.755,0,0,1-.73.252,1.357,1.357,0,0,1-.611-.267L17.5,11.889,16.36,12.97,19.049,15.8l.006.006a.774.774,0,0,1,0,1.111h0a.761.761,0,0,1-.552.23,1.84,1.84,0,0,1-.43-.012,1.507,1.507,0,0,1-.6-.436l-2.333-2.449L14,15.327l2.689,2.827.006.006a.774.774,0,0,1,0,1.111h0a.761.761,0,0,1-.552.23.614.614,0,0,1-.15-.021,2.324,2.324,0,0,0-2.207-1.547h0a2.347,2.347,0,0,0-2.354-2.357h0a2.347,2.347,0,0,0-2.354-2.357h0a2.357,2.357,0,0,0-4.021-1.67l-.543.54a4.674,4.674,0,0,1-.927-3.045A4.846,4.846,0,0,1,8.629,4.578Zm8.741,0a4.846,4.846,0,0,1,5.052,4.466,4.6,4.6,0,0,1-.657,2.514L18.027,7.734a2.7,2.7,0,0,0-3.79-.055L11.99,9.839l-.006,0a.773.773,0,0,1-.555.23.761.761,0,0,1-.552-.23h0a.774.774,0,0,1,0-1.111l2.91-2.814,0,0A4.871,4.871,0,0,1,17.37,4.578ZM6.714,12.426a.789.789,0,0,1,.556,1.344l-.786.786h0a.778.778,0,0,1-1.1,0h0a.775.775,0,0,1,0-1.111l.786-.786A.782.782,0,0,1,6.714,12.426Zm2.357,2.357a.789.789,0,0,1,.555,1.344l-.786.786h0a.778.778,0,0,1-1.1,0h0a.775.775,0,0,1,0-1.111l.786-.786A.781.781,0,0,1,9.071,14.783Zm2.357,2.357a.789.789,0,0,1,.555,1.344l-.786.786h0a.778.778,0,0,1-1.1,0h0a.774.774,0,0,1,0-1.111l.786-.786A.781.781,0,0,1,11.428,17.141ZM13.785,19.5a.789.789,0,0,1,.555,1.344l-.786.786h0a.778.778,0,0,1-1.1,0h0a.774.774,0,0,1,0-1.111l.786-.786A.781.781,0,0,1,13.785,19.5Z" transform="translate(-1.998 -3.004)" fill="#26c165"/>
</svg>
