<svg xmlns="http://www.w3.org/2000/svg" width="16" height="14.4" viewBox="0 0 16 14.4">
  <path id="icons8_invite" d="M12.022,6a.6.6,0,0,0-.328.084L4.88,10.136A1.8,1.8,0,0,0,4,11.683V17.8a2.609,2.609,0,0,0,2.6,2.6H17.4A2.609,2.609,0,0,0,20,17.8V11.683a1.8,1.8,0,0,0-.88-1.547h0L12.307,6.085A.6.6,0,0,0,12.022,6ZM12,7.3l6.506,3.869L12,14.333,5.493,11.168h0Zm-.009,1.093A.6.6,0,0,0,11.4,9v1.2H10.2a.6.6,0,1,0,0,1.2h1.2v1.2a.6.6,0,1,0,1.2,0V11.4h1.2a.6.6,0,1,0,0-1.2H12.6V9a.6.6,0,0,0-.609-.609ZM5.2,12.36l6.538,3.18a.6.6,0,0,0,.525,0L18.8,12.36V17.8a1.391,1.391,0,0,1-1.4,1.4H6.6a1.391,1.391,0,0,1-1.4-1.4Z" transform="translate(-4 -6.001)" fill="#1471ea"/>
</svg>
