<svg xmlns="http://www.w3.org/2000/svg" width="23.5" height="23.5" viewBox="0 0 23.5 23.5">
  <g id="icons8_Sorting_Arrows_Horizontal" transform="translate(22.75 0.75) rotate(90)">
    <path id="Path_5484" data-name="Path 5484" d="M11,22A11,11,0,1,0,0,11,11,11,0,0,0,11,22Z" transform="translate(0 0)" fill="#fff" stroke="#ececec" stroke-width="1.5"/>
    <path id="Path_5485" data-name="Path 5485" d="M15.669,9.494a.32.32,0,0,1-.12.253s-.013.009-.018.018-.009,0-.009.009-.013.009-.018.013,0,0-.009,0q-2.235,1.45-4.465,2.9a.328.328,0,0,1-.488-.279V10.185H6.615c-.013,0-.022,0-.035,0a.58.58,0,0,1-.536-.324c-.284-.514-.568-1.029-.851-1.547-.4-.736.723-1.388,1.126-.652.222.408.448.811.669,1.219h3.547v-2.3a.33.33,0,0,1,.492-.284q2.228,1.443,4.46,2.891l.031.018h0c.009.009.022.013.031.022A.319.319,0,0,1,15.669,9.494ZM9.351,5.065c-.222-.408-.448-.811-.669-1.219H5.135v2.3a.33.33,0,0,1-.492.284Q2.408,4.983.182,3.539a.135.135,0,0,1-.031-.022h0C.142,3.508.129,3.5.12,3.5A.311.311,0,0,1,0,3.233a.32.32,0,0,1,.12-.253s.013-.009.018-.013.009,0,.009-.009S.16,2.95.164,2.945s0,0,.009,0q2.235-1.45,4.465-2.9a.328.328,0,0,1,.488.279V2.546H9.054c.013,0,.022,0,.035,0a.58.58,0,0,1,.536.324c.284.514.568,1.029.851,1.547A.649.649,0,0,1,9.351,5.065Z" transform="translate(2.793 4.831)" fill="#2ed173"/>
  </g>
</svg>
