<svg xmlns="http://www.w3.org/2000/svg" width="14.251" height="15" viewBox="0 0 14.251 15">
  <path id="icons8_ringer_volume" d="M13.063,4a.563.563,0,1,0,0,1.125,5.054,5.054,0,0,1,5.063,5.063.563.563,0,1,0,1.125,0A6.2,6.2,0,0,0,13.063,4ZM8.149,4a1.487,1.487,0,0,0-.569.067l-.807.259a2.445,2.445,0,0,0-1.612,1.8Q4.454,9.2,6.853,13.607T12.105,18.9a2.266,2.266,0,0,0,2.29-.583l.613-.616a1.742,1.742,0,0,0,.194-2.187l-.924-1.358a1.526,1.526,0,0,0-1.748-.615l-1.4.469a.573.573,0,0,1-.549-.1A6.577,6.577,0,0,1,9.12,12.162a6.123,6.123,0,0,1-.773-2.087.568.568,0,0,1,.176-.5l1.2-1.143A1.738,1.738,0,0,0,10.113,6.5L9.469,4.984A1.579,1.579,0,0,0,8.149,4ZM13.063,6.25a.563.563,0,1,0,0,1.125,2.8,2.8,0,0,1,2.813,2.813.563.563,0,1,0,1.125,0A3.946,3.946,0,0,0,13.063,6.25Zm0,2.25a.563.563,0,1,0,0,1.125.554.554,0,0,1,.563.562.563.563,0,1,0,1.125,0A1.7,1.7,0,0,0,13.063,8.5Z" transform="translate(-5 -4)" fill="#0157f0"/>
</svg>
