<svg xmlns="http://www.w3.org/2000/svg" width="22" height="15.932" viewBox="0 0 22 15.932">
  <path id="icons8_mortarboard" d="M11.62,5a.759.759,0,0,0-.222.034L1.535,8.069a.759.759,0,0,0,0,1.449L11.4,12.553a.759.759,0,0,0,.447,0l8.88-2.732v6.77a1.51,1.51,0,0,0-.759,1.307c0,.838,1.517,3.035,1.517,3.035S23,18.736,23,17.9a1.51,1.51,0,0,0-.759-1.307v-7.8q0-.012,0-.024a.759.759,0,0,0-.648-.736l-9.749-3A.759.759,0,0,0,11.62,5ZM5.552,12.342v4.8a11.1,11.1,0,0,1,6.069,2.276,11.1,11.1,0,0,1,6.069-2.276v-4.8L12.291,14a2.276,2.276,0,0,1-1.339,0Z" transform="translate(-1.002 -5)" fill="#6b3bed"/>
</svg>
