<svg xmlns="http://www.w3.org/2000/svg" width="16.216" height="15" viewBox="0 0 16.216 15">
  <path id="icons8_boxes" d="M8.257,6a.608.608,0,0,0-.608.608v5.27a2.162,2.162,0,0,0,.277,1.014H4.608A.608.608,0,0,0,4,13.5v5.27A2.239,2.239,0,0,0,6.23,21h4.257a2.208,2.208,0,0,0,1.622-.726A2.208,2.208,0,0,0,13.73,21h4.257a2.239,2.239,0,0,0,2.23-2.23V13.5a.608.608,0,0,0-.608-.608H15.885a2.162,2.162,0,0,0,.277-1.014V6.608A.608.608,0,0,0,15.554,6Zm.608,1.216h6.081v4.662a1,1,0,0,1-1.014,1.014H9.878a1,1,0,0,1-1.014-1.014Zm2.23,1.216a.608.608,0,1,0,0,1.216h1.622a.608.608,0,1,0,0-1.216ZM5.216,14.108H11.5V18.77a1,1,0,0,1-1.014,1.014H6.23A1,1,0,0,1,5.216,18.77Zm7.5,0H19V18.77a1,1,0,0,1-1.014,1.014H13.73a1,1,0,0,1-1.014-1.014Zm-5.27,1.216a.608.608,0,1,0,0,1.216H9.068a.608.608,0,1,0,0-1.216Zm7.7,0a.608.608,0,1,0,0,1.216H16.77a.608.608,0,1,0,0-1.216Z" transform="translate(-4 -6)" fill="#b2b2b2"/>
</svg>
