<svg xmlns="http://www.w3.org/2000/svg" width="13.6" height="16" viewBox="0 0 13.6 16">
  <path id="icons8_authentication_message" d="M13.8,4A1.809,1.809,0,0,0,12,5.8V18.2A1.809,1.809,0,0,0,13.8,20h6a1.809,1.809,0,0,0,1.8-1.8V16H20.4v2.2a.591.591,0,0,1-.6.6h-6a.591.591,0,0,1-.6-.6V5.8a.591.591,0,0,1,.6-.6h6a.591.591,0,0,1,.6.6V7.6h1.2V5.8A1.809,1.809,0,0,0,19.8,4Zm3,2.4a.6.6,0,1,0,.6.6A.6.6,0,0,0,16.8,6.4Zm1.4,2a1.809,1.809,0,0,0-1.8,1.8V15a.6.6,0,0,0,.909.515L19.166,14.4H23.8a1.809,1.809,0,0,0,1.8-1.8V10.2a1.809,1.809,0,0,0-1.8-1.8Zm0,1.2h5.6a.591.591,0,0,1,.6.6v2.4a.591.591,0,0,1-.6.6H19a.6.6,0,0,0-.309.085L17.6,13.94V10.2A.591.591,0,0,1,18.2,9.6Zm.8,1.2a.6.6,0,1,0,.6.6A.6.6,0,0,0,19,10.8Zm2,0a.6.6,0,1,0,.6.6A.6.6,0,0,0,21,10.8Zm2,0a.6.6,0,1,0,.6.6A.6.6,0,0,0,23,10.8Zm-7.2,5.6a.6.6,0,1,0,0,1.2h2a.6.6,0,1,0,0-1.2Z" transform="translate(-12 -4)" fill="#1471ea"/>
</svg>
