<svg xmlns="http://www.w3.org/2000/svg" width="17.1" height="18" viewBox="0 0 17.1 18">
  <path id="icons8_place_marker" d="M13.55,4A6.3,6.3,0,0,0,8.763,14.39c.11.128,2.7,3.143,3.573,3.974a1.76,1.76,0,0,0,2.43,0c1.012-.965,3.47-3.853,3.573-3.974A6.3,6.3,0,0,0,13.55,4Zm0,4.05A2.25,2.25,0,1,1,11.3,10.3,2.25,2.25,0,0,1,13.55,8.05ZM8.5,15.449C6.452,16.039,5,17.029,5,18.4,5,20.763,9.3,22,13.55,22s8.55-1.237,8.55-3.6c0-1.371-1.451-2.359-3.5-2.95-.26.3-.616.7-1.008,1.135,1.992.468,3.154,1.227,3.154,1.816,0,.918-2.8,2.25-7.2,2.25s-7.2-1.332-7.2-2.25c0-.59,1.164-1.349,3.159-1.818C9.119,16.148,8.76,15.745,8.5,15.449Z" transform="translate(-5 -4)" fill="#1471ea"/>
</svg>
