<svg xmlns="http://www.w3.org/2000/svg" width="15" height="15" viewBox="0 0 15 15">
  <path id="icons8_cardboard_box" d="M9.293,6a1.876,1.876,0,0,0-1.44.675l-1.418,1.7h0A1.878,1.878,0,0,0,6,9.577v9.131A2.3,2.3,0,0,0,8.292,21H18.708A2.3,2.3,0,0,0,21,18.708V9.577a1.876,1.876,0,0,0-.435-1.2l-1.418-1.7A1.876,1.876,0,0,0,17.707,6Zm0,1.25h3.582V8.917H7.611l1.2-1.442A.624.624,0,0,1,9.293,7.25Zm4.832,0h3.582a.624.624,0,0,1,.48.225l1.2,1.442H14.125ZM7.25,10.167h12.5v8.542a1.032,1.032,0,0,1-1.042,1.042H8.292A1.032,1.032,0,0,1,7.25,18.708Zm4.375,1.667a.625.625,0,1,0,0,1.25h3.75a.625.625,0,1,0,0-1.25Z" transform="translate(-6 -6)" fill="#b2b2b2"/>
</svg>
