<svg xmlns="http://www.w3.org/2000/svg" width="16" height="19" viewBox="0 0 16 19">
  <path id="icons8_user_shield_1" d="M13.021,2a.631.631,0,0,0-.442.162A11.932,11.932,0,0,1,5.632,4.955.633.633,0,0,0,5,5.588v5.176c0,2.82,1.3,7.459,7.755,10.185a.63.63,0,0,0,.49,0C19.7,18.224,21,13.584,21,10.765V5.588a.632.632,0,0,0-.632-.633,11.932,11.932,0,0,1-6.947-2.793.631.631,0,0,0-.4-.162ZM13,6.644a2.111,2.111,0,1,1-2.105,2.111A2.111,2.111,0,0,1,13,6.644Zm-2.737,5.911h5.474a1.056,1.056,0,0,1,1.053,1.056v.422a2.365,2.365,0,0,1-.063.549.634.634,0,0,1-.17.3,5.034,5.034,0,0,1-7.112,0,.633.633,0,0,1-.169-.3,2.352,2.352,0,0,1-.064-.55V13.61A1.056,1.056,0,0,1,10.263,12.555Z" transform="translate(-5 -1.999)" fill="#1471ea"/>
</svg>
