<svg xmlns="http://www.w3.org/2000/svg" width="16" height="16" viewBox="0 0 16 16">
  <path id="icons8_phone_message" d="M13.8,4A1.809,1.809,0,0,0,12,5.8V11a.6.6,0,0,0,.933.5L15.178,10H18.2A1.809,1.809,0,0,0,20,8.2V5.8A1.809,1.809,0,0,0,18.2,4ZM8.013,4a2.238,2.238,0,0,0-.8.086h0l-.946.28A3.015,3.015,0,0,0,4.205,6.48c-.592,2.247.085,4.906,1.848,7.9s3.767,4.889,6.032,5.51a3.07,3.07,0,0,0,2.893-.705l.72-.668a2.181,2.181,0,0,0,.275-2.88l-1.04-1.413a2.239,2.239,0,0,0-2.445-.809l-1.628.487c-.068.02-.232-.073-.374-.2h0a5.627,5.627,0,0,1-.98-1.3h0a5.812,5.812,0,0,1-.644-1.4.752.752,0,0,1-.042-.386.189.189,0,0,1,.063-.119h0L10.1,9.39a2.175,2.175,0,0,0,.513-2.507l-.733-1.6h0A2.224,2.224,0,0,0,8.013,4ZM13.8,5.2h4.4a.591.591,0,0,1,.6.6V8.2a.591.591,0,0,1-.6.6H15a.6.6,0,0,0-.333.1L13.2,9.878V5.8A.591.591,0,0,1,13.8,5.2Zm-5.87,0a1.03,1.03,0,0,1,.86.585l.732,1.6a.959.959,0,0,1-.232,1.122L8.073,9.614a1.392,1.392,0,0,0-.446.87h0a2.383,2.383,0,0,0,.073.823,6.86,6.86,0,0,0,.77,1.7h0a6.424,6.424,0,0,0,1.227,1.6h0a1.582,1.582,0,0,0,1.5.442h0l1.635-.49a1.037,1.037,0,0,1,1.133.371l1.041,1.413a.965.965,0,0,1-.125,1.289l-.72.669a1.89,1.89,0,0,1-1.761.427c-1.832-.5-3.644-2.124-5.314-4.96s-2.2-5.189-1.722-6.985A1.83,1.83,0,0,1,6.61,5.522l.946-.28A1.035,1.035,0,0,1,7.927,5.2Z" transform="translate(-3.996 -3.999)" fill="#1471ea"/>
</svg>
