<svg xmlns="http://www.w3.org/2000/svg" width="18.182" height="20" viewBox="0 0 18.182 20">
  <path id="icons8_holding_box" d="M14.091,3,7.727,6.182l6.364,3.636,6.364-3.636ZM7.727,7.091v5.937l.137-.109A2.129,2.129,0,0,1,10.5,13l.05.05,1.841,1.978a8.332,8.332,0,0,1,1.25,1.568V10.727Zm12.727,0-5.909,3.636V16.6a8.332,8.332,0,0,1,1.25-1.568l1.841-1.978.05-.05a2.129,2.129,0,0,1,2.631-.086l.137.109ZM6.818,7.114a1.817,1.817,0,0,0-1.429.7A1.891,1.891,0,0,0,5,8.993V14.6c0,1.214,0,1.718.55,2.314,0,0,2.427,3.118,3.086,3.968v1.273A.821.821,0,0,0,9.545,23h3.182a.823.823,0,0,0,.909-.909V19.818c0-.045,0-.1,0-.141a5.733,5.733,0,0,0-1.91-4.027L9.909,13.7l-.005,0a1.227,1.227,0,0,0-1.5-.05,1.192,1.192,0,0,0-.241,1.673l2.34,3.123a.455.455,0,0,1-.091.636.438.438,0,0,1-.273.091.461.461,0,0,1-.364-.182L7.116,15.646a1.364,1.364,0,0,1-.3-.85Zm14.545,0V14.8a1.363,1.363,0,0,1-.3.85L18.4,18.986a.461.461,0,0,1-.364.182.438.438,0,0,1-.273-.091.455.455,0,0,1-.091-.636l2.34-3.123a1.192,1.192,0,0,0-.241-1.673,1.227,1.227,0,0,0-1.5.05l-.005,0-1.813,1.95a5.733,5.733,0,0,0-1.91,4.027c0,.045,0,.1,0,.141v2.273a.823.823,0,0,0,.909.909h3.182a.821.821,0,0,0,.909-.845V20.882c.659-.85,3.086-3.968,3.086-3.968.555-.6.55-1.1.55-2.314V8.993a1.892,1.892,0,0,0-.389-1.183A1.817,1.817,0,0,0,21.364,7.114Z" transform="translate(-5 -3)" fill="#6b3bed"/>
</svg>
