<svg xmlns="http://www.w3.org/2000/svg" width="22" height="19.8" viewBox="0 0 22 19.8">
  <path id="icons8_news" d="M4.2,3A2.2,2.2,0,0,0,2,5.2V19.5a3.3,3.3,0,0,0,3.3,3.3H20.7A3.317,3.317,0,0,0,24,19.5V8.5a1.1,1.1,0,1,0-2.2,0v11a1.083,1.083,0,0,1-1.1,1.1,1.1,1.1,0,0,1-1.1-1.1V5.2A2.2,2.2,0,0,0,17.4,3ZM7.5,6.3h6.6a1.1,1.1,0,0,1,1.1,1.1V8.5a1.1,1.1,0,0,1-1.1,1.1H7.5A1.1,1.1,0,0,1,6.4,8.5V7.4A1.1,1.1,0,0,1,7.5,6.3Zm0,6.6h6.6a1.1,1.1,0,1,1,0,2.2H7.5a1.1,1.1,0,1,1,0-2.2Zm0,4.4h6.6a1.1,1.1,0,1,1,0,2.2H7.5a1.1,1.1,0,1,1,0-2.2Z" transform="translate(-2 -3)" fill="#ff4133"/>
</svg>
