<svg xmlns="http://www.w3.org/2000/svg" width="12.8" height="16" viewBox="0 0 12.8 16">
  <path id="icons8_name_tag" d="M13,3a1.8,1.8,0,0,0-1.78,1.6H9.8A1.809,1.809,0,0,0,8,6.4V17.2A1.809,1.809,0,0,0,9.8,19H19a1.809,1.809,0,0,0,1.8-1.8V6.4A1.809,1.809,0,0,0,19,4.6H17.58A1.8,1.8,0,0,0,15.8,3Zm0,1.2h2.8a.6.6,0,1,1,0,1.2H13a.6.6,0,0,1,0-1.2ZM9.8,5.8h1.708A1.8,1.8,0,0,0,13,6.6h2.8a1.8,1.8,0,0,0,1.492-.8H19a.591.591,0,0,1,.6.6V17.2a.591.591,0,0,1-.6.6H9.8a.591.591,0,0,1-.6-.6V6.4A.591.591,0,0,1,9.8,5.8Zm4.6,2.4a2,2,0,0,0-1.5.639,2.1,2.1,0,0,0,0,2.722,2.076,2.076,0,0,0,3,0,2.1,2.1,0,0,0,0-2.722A2,2,0,0,0,14.4,8.2Zm0,1.2a.72.72,0,0,1,.6.236.9.9,0,0,1,0,1.128.885.885,0,0,1-1.2,0,.9.9,0,0,1,0-1.128A.72.72,0,0,1,14.4,9.4ZM12.2,13a1.009,1.009,0,0,0-1,1v.6a1.8,1.8,0,0,0,1.077,1.518A4.5,4.5,0,0,0,14.4,16.6a4.5,4.5,0,0,0,2.123-.482A1.8,1.8,0,0,0,17.6,14.6V14a1.009,1.009,0,0,0-1-1Zm.2,1.2h4v.4c0,.086-.088.269-.446.462a3.738,3.738,0,0,1-3.108,0c-.358-.193-.446-.376-.446-.462Z" transform="translate(-8 -3)" fill="#b2b2b2"/>
</svg>
