<svg xmlns="http://www.w3.org/2000/svg" width="16" height="16" viewBox="0 0 16 16">
  <path id="icons8_term" d="M8.444,6A2.444,2.444,0,0,0,6,8.444V19.556A2.444,2.444,0,0,0,8.444,22h.444a.667.667,0,1,0,0-1.333H8.444a1.111,1.111,0,0,1-1.111-1.111V8.444A1.111,1.111,0,0,1,8.444,7.333h.444A.667.667,0,0,0,8.889,6ZM19.111,6a.667.667,0,0,0,0,1.333h.444a1.111,1.111,0,0,1,1.111,1.111V19.556a1.111,1.111,0,0,1-1.111,1.111h-.444a.667.667,0,0,0,0,1.333h.444A2.444,2.444,0,0,0,22,19.556V8.444A2.444,2.444,0,0,0,19.556,6Zm-8.889,4.444a.667.667,0,1,0,0,1.333h8a.667.667,0,1,0,0-1.333Zm0,3.111a.667.667,0,1,0,0,1.333H16a.667.667,0,1,0,0-1.333Zm0,3.111a.667.667,0,1,0,0,1.333h8a.667.667,0,1,0,0-1.333Z" transform="translate(-6 -6)" fill="#1471ea"/>
</svg>
