<svg xmlns="http://www.w3.org/2000/svg" width="18" height="21.999" viewBox="0 0 18 21.999">
  <path id="icons8_user_shield" d="M19.812,4.284l-7-3.111a2,2,0,0,0-1.624,0l-7,3.111A2,2,0,0,0,3,6.112V11a12.419,12.419,0,0,0,9,12,12.419,12.419,0,0,0,9-12V6.112A2,2,0,0,0,19.812,4.284ZM12,6A3,3,0,1,1,9,9,3,3,0,0,1,12,6Zm5.392,10.611A10.74,10.74,0,0,1,12,20.937a10.73,10.73,0,0,1-5.391-4.325,1,1,0,0,1,.35-1.435A12.593,12.593,0,0,1,12,14a12.611,12.611,0,0,1,5.041,1.176A1,1,0,0,1,17.392,16.611Z" transform="translate(-3 -1.001)" fill="#ff4133"/>
</svg>
