<svg xmlns="http://www.w3.org/2000/svg" width="13.186" height="18" viewBox="0 0 13.186 18">
  <path id="icons8_gas" d="M17.181,12.509c-.018-2.2-1.186-4.356-2.041-5.931-.189-.35-.367-.676-.517-.976l-.565-1.129-.806.972a3.163,3.163,0,0,0-.339.52,29.208,29.208,0,0,1-1.541-3.55L10.95,1.15l-.942.942C9.762,2.337,4,8.15,4,12.56a6.59,6.59,0,0,0,13.181,0v-.04l0-.007ZM8.119,15.031c0-2.471,2.471-4.943,2.471-4.943.473,2.52,2.578,3.257,2.471,4.943A2.53,2.53,0,0,1,10.59,17.5,2.471,2.471,0,0,1,8.119,15.031Z" transform="translate(-4 -1.15)" fill="#b3b7c0"/>
</svg>
