<svg xmlns="http://www.w3.org/2000/svg" width="16.001" height="20" viewBox="0 0 16.001 20">
  <path id="icons8_user" d="M16,4a5,5,0,1,0,5,5A5.011,5.011,0,0,0,16,4Zm0,1.5A3.5,3.5,0,1,1,12.5,9,3.489,3.489,0,0,1,16,5.5ZM9.989,16A2,2,0,0,0,8,17.989v.761a4.66,4.66,0,0,0,2.653,4.031A11.254,11.254,0,0,0,16,24a11.254,11.254,0,0,0,5.347-1.219A4.833,4.833,0,0,0,23.881,19.5H24V17.989A2,2,0,0,0,22.011,16Zm0,1.5H22.011a.479.479,0,0,1,.49.489V18h0v.75a3.047,3.047,0,0,1-1.878,2.719A9.967,9.967,0,0,1,16,22.5a9.967,9.967,0,0,1-4.622-1.031A3.047,3.047,0,0,1,9.5,18.75v-.761A.478.478,0,0,1,9.989,17.5Z" transform="translate(-8 -4)" fill="#474747"/>
</svg>
