<svg xmlns="http://www.w3.org/2000/svg" width="16" height="17.347" viewBox="0 0 16 17.347">
  <path id="icons8_notification" d="M13.693,4.008a6.787,6.787,0,0,0-6.351,6.834v3.233L6.164,16.446l-.006.013a1.577,1.577,0,0,0,1.408,2.22h3.78a2.669,2.669,0,0,0,5.338,0h3.779a1.577,1.577,0,0,0,1.409-2.22l-.006-.013-1.179-2.372v-3.4A6.684,6.684,0,0,0,13.693,4.008Zm.063,1.333a5.326,5.326,0,0,1,5.6,5.332v3.559a.667.667,0,0,0,.07.3l1.242,2.5a.207.207,0,0,1-.2.316H7.566a.206.206,0,0,1-.2-.316h0l1.242-2.5a.667.667,0,0,0,.069-.3V10.842A5.447,5.447,0,0,1,13.756,5.341ZM12.68,18.679h2.669a1.334,1.334,0,0,1-2.669,0Z" transform="translate(-6.015 -4.001)" fill="#1471ea"/>
</svg>
