<svg xmlns="http://www.w3.org/2000/svg" width="13" height="13" viewBox="0 0 13 13">
  <path id="icons8_slider_3" d="M7.2,2A1.955,1.955,0,0,0,5.372,3.3H2V4.6H5.372A1.946,1.946,0,1,0,7.2,2Zm0,1.3a.65.65,0,1,1-.65.65A.64.64,0,0,1,7.2,3.3Zm3.25,0V4.6H15V3.3Zm0,3.25a1.955,1.955,0,0,0-1.828,1.3H2v1.3H8.622a1.946,1.946,0,1,0,1.828-2.6Zm0,1.3a.65.65,0,1,1-.65.65A.64.64,0,0,1,10.45,7.85Zm3.25,0v1.3H15V7.85ZM5.25,11.1a1.955,1.955,0,0,0-1.828,1.3H2v1.3H3.422A1.946,1.946,0,1,0,5.25,11.1Zm0,1.3a.65.65,0,1,1-.65.65A.64.64,0,0,1,5.25,12.4Zm3.25,0v1.3H15V12.4Z" transform="translate(-2 -2)" fill="#313131"/>
</svg>
