<svg xmlns="http://www.w3.org/2000/svg" width="20" height="23.638" viewBox="0 0 20 23.638">
  <path id="icons8_books" d="M9.157,0a.92.92,0,0,0-.369.142S7.637.866,6.4,1.647,3.789,3.29,3.476,3.464a.423.423,0,0,0-.057.028A3.067,3.067,0,0,0,2,5.992a.681.681,0,0,0,0,.085,3.925,3.925,0,0,0,0,.4V18.347C2,20.073,4.009,20.9,5.919,20.9a5.892,5.892,0,0,0,1.818-.284,1.085,1.085,0,0,0,.625-.909V10.167c0-2.091.454-3.075,1.818-3.891.362-.181,4.175-2.812,4.175-2.812a1.376,1.376,0,0,0,.369-.824V2.556a.963.963,0,0,0-.454-.824.828.828,0,0,0-.909,0c-.092.092-5.634,3.824-6.817,4.459-1.182.728-2.283.9-2.556.54a1.083,1.083,0,0,1-.17-.6V6.077a1.151,1.151,0,0,1,.568-1.022C4.9,4.771,6.164,3.961,7.4,3.18c.522-.33.586-.366.994-.625a.909.909,0,0,0,1.789-.284V.908A.9.9,0,0,0,9.874.223.913.913,0,0,0,9.157,0ZM16.428,3.18a.9.9,0,0,0-.4.17s-4.576,3.078-5.368,3.607l-.028.028A3.366,3.366,0,0,0,9.413,8.605a2.894,2.894,0,0,0-.142.937V20.9c0,1.725,1.988,2.727,3.806,2.727a3.822,3.822,0,0,0,2.1-.54c1.09-.636,6.362-4.743,6.362-4.743a.9.9,0,0,0,.454-.71V5.822a.91.91,0,0,0-.54-.909A.987.987,0,0,0,20.461,5c-1.456,1.09-5.368,4.168-6.277,4.715-1.271.728-2.471.909-2.925.454-.181-.181-.17-.351-.17-.625a1.524,1.524,0,0,1,.057-.4,1.339,1.339,0,0,1,.54-.653c.018-.014.011-.014.028-.028.657-.437,2.666-1.807,3.976-2.7a.909.909,0,0,0,1.761-.312V4.089a.9.9,0,0,0-.305-.685A.913.913,0,0,0,16.428,3.18Zm3.749,6.646v1.818l-4.544,3.522V13.348Z" transform="translate(-1.995 0.008)" fill="#26c165"/>
</svg>
