<svg xmlns="http://www.w3.org/2000/svg" width="22" height="22" viewBox="0 0 22 22">
  <path id="icons8_Price_Tag_USD" d="M21.334,3h-5.5a1.824,1.824,0,0,0-1.3.537l-11,11a1.833,1.833,0,0,0,0,2.592l7.333,7.333a1.833,1.833,0,0,0,2.592,0l11-11a1.825,1.825,0,0,0,.537-1.3v-5.5A3.667,3.667,0,0,0,21.334,3ZM17.845,15.017,16.6,13.774a1.488,1.488,0,0,0-.333-2c-.661-.661-1.405-.792-1.887-.311-.39.39-.311.915.271,1.811l.6.923c1,1.536,1,2.63.022,3.611-1.11,1.111-2.587,1.1-4,.031l-1.2,1.2-1.12-1.121,1.2-1.2c-1.034-1.352-1.091-2.8-.1-3.868l1.278,1.278c-.451.573-.263,1.418.481,2.162.688.688,1.506.841,1.983.364.4-.4.32-.95-.289-1.89l-.648-1c-.91-1.392-.875-2.556.088-3.518a2.761,2.761,0,0,1,3.768-.084l1.209-1.209,1.12,1.12L17.833,11.29A2.839,2.839,0,0,1,17.845,15.017ZM21.334,8.5a1.833,1.833,0,1,1,1.833-1.833A1.833,1.833,0,0,1,21.334,8.5Z" transform="translate(-3 -3)" fill="#26c165"/>
</svg>
