<svg xmlns="http://www.w3.org/2000/svg" width="16.713" height="13" viewBox="0 0 16.713 13">
  <path id="Subtraction_802" data-name="Subtraction 802" d="M-6405.459-17679.443h-.017a.955.955,0,0,1-.646-.275l-3.25-3.246a.936.936,0,0,1,0-1.312.912.912,0,0,1,.657-.275.911.911,0,0,1,.657.275l1.667,1.662v-8.9a.929.929,0,0,1,.929-.928.929.929,0,0,1,.929.928v8.9l1.662-1.662a.912.912,0,0,1,.657-.275.911.911,0,0,1,.657.275.936.936,0,0,1,0,1.313l-3.25,3.246A.9.9,0,0,1-6405.459-17679.443Zm-10.218,0h-1.4a.93.93,0,0,1-.929-.93.929.929,0,0,1,.929-.928h1.4a.927.927,0,0,1,.924.928A.927.927,0,0,1-6415.677-17679.443Zm1.857-3.717h-3.254a.929.929,0,0,1-.929-.928.931.931,0,0,1,.929-.93h3.254a.93.93,0,0,1,.928.93A.929.929,0,0,1-6413.819-17683.16Zm1.857-3.713h-5.111a.93.93,0,0,1-.929-.93.929.929,0,0,1,.929-.928h5.111a.929.929,0,0,1,.929.928A.93.93,0,0,1-6411.962-17686.873Zm1.857-3.715h-6.969a.929.929,0,0,1-.929-.928.929.929,0,0,1,.929-.928h6.969a.929.929,0,0,1,.928.928A.929.929,0,0,1-6410.1-17690.588Z" transform="translate(6418.002 17692.443)" fill="#313131"/>
</svg>
