<svg xmlns="http://www.w3.org/2000/svg" width="22" height="21.999" viewBox="0 0 22 21.999">
  <path id="Subtraction_720" data-name="Subtraction 720" d="M15.4,22a6.6,6.6,0,1,1,4.667-1.933A6.6,6.6,0,0,1,15.4,22Zm-2.75-7.7a1.1,1.1,0,0,0,0,2.2h5.5a1.1,1.1,0,0,0,0-2.2ZM5.04,22a.642.642,0,0,1-.641-.642V20.9H4.124A3.028,3.028,0,0,1,1.1,17.873v-1.1a.825.825,0,0,1,.812-.837h.013a.819.819,0,0,1,.583.241.829.829,0,0,1,.242.6v1.1a1.36,1.36,0,0,0,1.375,1.375H4.4v-.458a.641.641,0,0,1,1.094-.454l1.284,1.284a.641.641,0,0,1,0,.906L5.493,21.81A.632.632,0,0,1,5.04,22ZM6.6,13.2a6.6,6.6,0,1,1,6.6-6.6,5.687,5.687,0,0,1-.06.869,8.284,8.284,0,0,0-5.67,5.67A5.7,5.7,0,0,1,6.6,13.2ZM3.849,5.5a1.1,1.1,0,0,0,0,2.2h5.5a1.1,1.1,0,1,0,0-2.2Zm16.224.55a.825.825,0,0,1-.825-.825v-1.1a1.36,1.36,0,0,0-1.375-1.375H17.6v.458a.642.642,0,0,1-1.095.454L15.22,2.377a.641.641,0,0,1,0-.907L16.5.187A.641.641,0,0,1,17.6.642V1.1h.275A3.028,3.028,0,0,1,20.9,4.124v1.1A.825.825,0,0,1,20.072,6.049Z" transform="translate(0.002 0.002)" fill="#0157f0"/>
</svg>
