<svg xmlns="http://www.w3.org/2000/svg" width="22" height="19.25" viewBox="0 0 22 19.25">
  <path id="Subtraction_726" data-name="Subtraction 726" d="M13.234,19.25H11V16.791a3.348,3.348,0,0,1,3.35-3.351h3.908V11.766l.257.191L22,14.558l-3.741,2.792V15.674H14.351a1.118,1.118,0,0,0-1.117,1.117v2.458Zm-3.805-.392h0a9.429,9.429,0,0,1-6.666-16.1,9.429,9.429,0,0,1,16.1,6.667c0,.26-.011.529-.033.8L16.687,8.632v3.237H14.351a4.928,4.928,0,0,0-4.922,4.922v2.065ZM5.5,7.857A1.571,1.571,0,0,0,5.5,11h7.857a1.571,1.571,0,0,0,0-3.143Z" fill="#ff4133"/>
</svg>
