<svg xmlns="http://www.w3.org/2000/svg" width="15.499" height="15.5" viewBox="0 0 15.499 15.5">
  <path id="Subtraction_824" data-name="Subtraction 824" d="M-2737.751-21776a7.758,7.758,0,0,1-7.75-7.75,7.758,7.758,0,0,1,7.75-7.75,7.759,7.759,0,0,1,7.75,7.75A7.759,7.759,0,0,1-2737.751-21776Zm0-9.2a.848.848,0,0,0-.848.848v4.4a.848.848,0,0,0,.848.848.851.851,0,0,0,.853-.848v-4.4A.851.851,0,0,0-2737.751-21785.2Zm0-2.8a1.051,1.051,0,0,0-1.05,1.051,1.049,1.049,0,0,0,1.05,1.045,1.049,1.049,0,0,0,1.05-1.045A1.051,1.051,0,0,0-2737.751-21788Z" transform="translate(2745.501 21791.498)" fill="#ff4040"/>
</svg>
