<svg xmlns="http://www.w3.org/2000/svg" width="16" height="15" viewBox="0 0 16 15">
  <path id="Union_468" data-name="Union 468" d="M-8506.718-17694.289a4.44,4.44,0,0,1,0-6.24l6.148-6.184a4.37,4.37,0,0,1,3.1-1.287,4.369,4.369,0,0,1,3.1,1.287,4.438,4.438,0,0,1,.066,6.168,3.907,3.907,0,0,1,2.3,3.557,3.9,3.9,0,0,1-3.882,3.9,3.89,3.89,0,0,1-3.537-2.307l-1.092,1.1a4.373,4.373,0,0,1-3.1,1.289A4.371,4.371,0,0,1-8506.718-17694.289Zm.823-5.414a3.249,3.249,0,0,0,0,4.586,3.207,3.207,0,0,0,4.561,0l1.5-1.5a.527.527,0,0,1,.091-.078c-.007-.1-.016-.193-.016-.291a3.878,3.878,0,0,1,.46-1.832l-3.734-3.754Zm7.3,2.715a2.717,2.717,0,0,0,2.718,2.734,2.717,2.717,0,0,0,2.718-2.734,2.715,2.715,0,0,0-2.718-2.73A2.715,2.715,0,0,0-8498.6-17696.988Zm-1.148-8.895-2.467,2.479,3.615,3.637a3.85,3.85,0,0,1,2.718-1.123c.095,0,.188.008.281.014a.5.5,0,0,1,.057-.062l.357-.359a3.247,3.247,0,0,0,0-4.584,3.2,3.2,0,0,0-2.28-.955A3.2,3.2,0,0,0-8499.747-17705.883Zm-3.538,10.262a.583.583,0,0,1,.583-.584.584.584,0,0,1,.584.584.586.586,0,0,1-.584.586A.585.585,0,0,1-8503.285-17695.621Zm6.277.186a.578.578,0,0,1-.416-.418.586.586,0,0,1,.161-.572l1.941-1.951a.582.582,0,0,1,.4-.178.586.586,0,0,1,.553.357.583.583,0,0,1-.131.646l-1.941,1.951a.566.566,0,0,1-.42.184A.542.542,0,0,1-8497.008-17695.436Zm-8.219-.576a.584.584,0,0,1,.584-.584.582.582,0,0,1,.58.584.583.583,0,0,1-.58.586A.585.585,0,0,1-8505.227-17696.012Zm3.5-1.17a.584.584,0,0,1,.582-.586.586.586,0,0,1,.584.586.587.587,0,0,1-.584.586A.586.586,0,0,1-8501.731-17697.182Zm-2.331-.393a.585.585,0,0,1,.583-.584.584.584,0,0,1,.584.584.583.583,0,0,1-.584.586A.584.584,0,0,1-8504.062-17697.574Zm-1.94-.391a.586.586,0,0,1,.583-.584.585.585,0,0,1,.582.584.585.585,0,0,1-.582.588A.587.587,0,0,1-8506-17697.965Zm3.5-1.17a.583.583,0,0,1,.58-.584.584.584,0,0,1,.584.584.586.586,0,0,1-.584.586A.585.585,0,0,1-8502.507-17699.135Zm-1.943-.781a.585.585,0,0,1,.583-.584.583.583,0,0,1,.582.584.585.585,0,0,1-.582.588A.587.587,0,0,1-8504.45-17699.916Z" transform="translate(8507.999 17708)" fill="#b2b2b2"/>
</svg>
