<svg xmlns="http://www.w3.org/2000/svg" width="22" height="22" viewBox="0 0 22 22">
  <path id="Union_515" data-name="Union 515" d="M15.889,22V19.556h2.445a1.157,1.157,0,0,0,1.222-1.222V15.889H22v2.445A3.585,3.585,0,0,1,18.334,22ZM6.11,22H3.667A3.586,3.586,0,0,1,0,18.334V15.889H2.444v2.445a1.157,1.157,0,0,0,1.222,1.222H6.111V22h0ZM15.5,15.9V6.1a.757.757,0,0,1,1.5,0v9.8a.757.757,0,0,1-1.5,0Zm-2.862,0V6.1a.757.757,0,0,1,1.5,0v9.8a.757.757,0,0,1-1.5,0Zm-2.863,0V6.1a.757.757,0,0,1,1.5,0v9.8a.757.757,0,0,1-1.5,0ZM5,15.9V6.1a.7.7,0,0,1,.751-.668A.7.7,0,0,1,6.5,6.1v9.8a.7.7,0,0,1-.752.668A.7.7,0,0,1,5,15.9ZM22,6.111H19.556V3.667a1.157,1.157,0,0,0-1.222-1.222H15.889V0h2.445A3.586,3.586,0,0,1,22,3.667V6.11h0Zm-19.555,0H0V3.667A3.587,3.587,0,0,1,3.667,0H6.111V2.444H3.667A1.157,1.157,0,0,0,2.444,3.667V6.11h0Z"/>
</svg>
